<?xml version="1.0" encoding="utf-8"?>
<!-- Generator: Adobe Illustrator 16.0.0, SVG Export Plug-In . SVG Version: 6.00 Build 0)  -->
<!DOCTYPE svg PUBLIC "-//W3C//DTD SVG 1.1//EN" "http://www.w3.org/Graphics/SVG/1.1/DTD/svg11.dtd">
<svg version="1.1" id="Capa_1" xmlns="http://www.w3.org/2000/svg" xmlns:xlink="http://www.w3.org/1999/xlink" x="0px" y="0px"
	 width="612px" height="129.237px" viewBox="0 0 612 129.237" enable-background="new 0 0 612 129.237" xml:space="preserve">
<g>
	<path fill="#B2945E" d="M170.767,114.825c0,4.485,3.631,8.126,8.113,8.126s8.117-3.641,8.117-8.126c0-4.483-3.635-8.12-8.117-8.12
		S170.767,110.342,170.767,114.825"/>
	<path fill="#3D5C4F" d="M162.458,97.428h-0.013c-8.811,0.02-15.97,7.152-16.187,16.037h-0.011v0.013l-0.011-0.013
		c-0.218-8.885-7.375-16.018-16.187-16.037h-0.013h-0.02v16.453h0.01c0.221,8.883,7.375,16.02,16.188,16.039h0.011h0.021l0-0.122
		v0.122h0.019h0.013c8.811-0.02,15.969-7.156,16.189-16.039h0.01V97.428H162.458z"/>
	<path fill="#3D5C4F" d="M194.938,80.971h-0.012c-0.204-8.26-6.409-14.998-14.364-15.919h-1.856c-0.419,0-0.835-0.021-1.249-0.052
		c-8.242,0.641-14.759,7.503-14.968,15.971h-0.01v16.456h0.019h0.012c8.812-0.019,15.966-7.154,16.187-16.038h0.009h0.012
		c0.221,8.884,7.375,16.02,16.188,16.038h0.008h0.024V80.971z"/>
	<path fill="#5C2134" d="M154.672,81.815c0-4.487-3.632-8.122-8.115-8.122c-4.48,0-8.115,3.635-8.115,8.122
		c0,4.485,3.635,8.122,8.115,8.122C151.041,89.938,154.672,86.301,154.672,81.815"/>
</g>
<g>
	<path fill="#3D5C4F" d="M97.5,81.191v-0.002V64.965v-0.001h16.229c0-8.96-7.264-16.224-16.22-16.229
		c-0.003,0-0.006-0.002-0.01-0.002l0,0c-8.963,0-16.229,7.265-16.23,16.228v0.003v0.001C81.271,73.927,88.537,81.191,97.5,81.191"/>
	<path fill="#3D5C4F" d="M127.436,81.414c-0.235,0.037-0.475,0.061-0.705,0.107c-3.082,0.633-5.841,2.145-8.019,4.254
		c-0.06,0.059-0.126,0.111-0.186,0.17c-0.092,0.092-0.173,0.195-0.263,0.289c-2.417,2.536-4.033,5.846-4.407,9.529
		c-0.012,0.121-0.008,0.243-0.019,0.365c-0.034,0.428-0.065,0.857-0.065,1.294h16.229V81.191
		C129.126,81.191,128.273,81.281,127.436,81.414"/>
	<path fill="#B2945E" d="M96.919,97.406c0.208,0.004,0.414,0.017,0.624,0.017v-0.001v-0.058V81.191
		c-0.014,0-0.028-0.002-0.042-0.002v0.002c-8.964,0-16.229-7.265-16.229-16.227v-0.003v-0.001
		c0.001-8.963,7.266-16.228,16.229-16.228l0,0c0.002,0,0.007,0.002,0.01,0.002c0.011,0,0.021-0.002,0.032-0.002
		c8.962,0,16.23,7.265,16.23,16.228h16.229c0-17.859-14.43-32.346-32.264-32.451c-0.064-0.002-0.129-0.006-0.194-0.006h-0.002
		c-17.93,0-32.461,14.533-32.461,32.458C65.082,82.68,79.278,97.072,96.919,97.406"/>
	<path fill="#B2945E" d="M113.773,97.422c0-0.438,0.03-0.866,0.065-1.293c0.01-0.122,0.007-0.244,0.019-0.366
		c0.375-3.683,1.989-6.992,4.407-9.53c0.09-0.094,0.17-0.195,0.263-0.287c0.061-0.061,0.126-0.111,0.187-0.17
		c2.175-2.11,4.934-3.621,8.018-4.252c0.229-0.05,0.469-0.072,0.704-0.109c0.837-0.134,1.689-0.223,2.567-0.223V64.964
		c-17.908,0-32.427,14.499-32.459,32.401c0,0.018,0,0.037,0,0.057h1.581H113.773z"/>
</g>
<path fill="#5C2134" d="M97.62,97.424h32.463c0,5.896-1.581,11.438-4.346,16.197c-5.609,9.693-16.098,16.203-28.117,16.203
	c-0.627,0-1.25,0.022-1.873,0.061H65.163v-0.061c0-5.901,1.579-11.432,4.342-16.203C75.12,103.938,85.609,97.424,97.62,97.424z"/>
<path fill="#B2945E" d="M324.773,64.964h-64.919c0-12.011,6.528-22.505,16.236-28.116c4.772-2.769,10.322-4.344,16.232-4.344
	C310.242,32.504,324.773,47.037,324.773,64.964z"/>
<path fill="#5C2134" d="M162.462,32.553v32.459h32.46c0-12.016-6.56-22.504-16.322-28.115
	C173.849,34.162,168.34,32.584,162.462,32.553z"/>
<path fill="#3D5C4F" d="M194.902,97.423v32.46h32.459c0-12.012-6.561-22.505-16.319-28.116
	C206.288,99.032,200.78,97.451,194.902,97.423z"/>
<g>
	<path fill="#5C2134" d="M227.382,97.423v32.46h32.458c0-12.015-6.556-22.502-16.315-28.116
		C238.771,99.03,233.262,97.456,227.382,97.423z"/>
	<path fill="#B2945E" d="M243.611,113.653v16.229h16.229c0-6.01-3.279-11.251-8.157-14.055
		C249.306,114.457,246.555,113.666,243.611,113.653z"/>
</g>
<path fill="#5C2134" d="M422.133,32.504h-32.461v32.46c12.012,0,22.51-6.562,28.115-16.319
	C420.525,43.893,422.105,38.387,422.133,32.504z"/>
<path fill="#3D5C4F" d="M389.68,97.423h-32.461v32.46c12.012,0,22.51-6.561,28.115-16.318
	C388.072,108.812,389.652,103.306,389.68,97.423z"/>
<path fill="#5C2134" d="M0,32.504h64.919c0,12.014-6.529,22.506-16.236,28.117c-4.769,2.762-10.313,4.343-16.226,4.343
	C14.532,64.964,0,50.432,0,32.504z"/>
<path fill="#B2945E" d="M113.771,97.422h16.231c0,2.951-0.786,5.723-2.174,8.096c-2.803,4.847-8.047,8.105-14.057,8.105
	c-0.313,0-0.627,0.012-0.937,0.029H97.542v-0.026c0-2.954,0.793-5.718,2.174-8.108C102.52,100.682,107.766,97.422,113.771,97.422z"
	/>
<path fill="#B2945E" d="M438.365,32.504h16.229c0,2.948-0.777,5.719-2.172,8.101c-2.809,4.846-8.041,8.102-14.057,8.102
	c-0.314,0-0.625,0.011-0.936,0.027h-15.297v-0.027c0-2.952,0.793-5.72,2.176-8.102C427.119,35.762,432.357,32.504,438.365,32.504z"
	/>
<path fill="#3D5C4F" d="M438.365,48.733h16.229c0,2.948-0.777,5.72-2.172,8.102c-2.809,4.845-8.041,8.101-14.057,8.101
	c-0.314,0-0.625,0.011-0.936,0.028h-15.297v-0.028c0-2.952,0.793-5.719,2.176-8.101C427.119,51.992,432.357,48.733,438.365,48.733z"
	/>
<path fill="#5C2134" d="M194.902,113.658V97.423c2.948,0,5.715,0.789,8.097,2.177c4.846,2.801,8.107,8.045,8.107,14.059
	c0,0.313,0.007,0.625,0.025,0.934v15.291h-0.025c-2.956,0-5.722-0.787-8.107-2.171C198.161,124.904,194.902,119.661,194.902,113.658
	z"/>
<path fill="#3D5C4F" d="M16.393,48.332V32.099c-2.948-0.002-5.715,0.79-8.098,2.171C3.451,37.074,0.19,42.32,0.19,48.332
	c0,0.311-0.008,0.623-0.027,0.936l0.002,15.291H0.19c2.955,0,5.724-0.789,8.105-2.168C13.138,59.582,16.393,54.334,16.393,48.332z"
	/>
<path fill="#B2945E" d="M146.23,32.439v0.063h-1.382c-5.423,0.461-10.087,3.58-12.674,8.057c-1.383,2.382-2.171,5.156-2.171,8.113
	v16.227h16.228c6.008,0,11.258-3.26,14.062-8.111c1.365-2.367,2.157-5.105,2.169-8.029v-0.086c0-2.957-0.787-5.731-2.169-8.113
	C157.488,35.705,152.238,32.439,146.23,32.439z"/>
<path fill="#B2945E" d="M357.219,129.883v32.459c-5.908,0-11.434-1.574-16.201-4.34c-9.688-5.61-16.197-16.096-16.197-28.119
	c0-0.629-0.02-1.25-0.061-1.875V97.423h0.061c5.902,0,11.428,1.575,16.197,4.339C350.695,107.381,357.219,117.868,357.219,129.883z"
	/>
<path fill="#3D5C4F" d="M324.76,113.764v16.23c2.945,0,5.711-0.791,8.086-2.169c4.844-2.808,8.094-8.054,8.094-14.062
	c0-0.314,0.01-0.625,0.029-0.937V97.533h-0.029c-2.945,0-5.701,0.79-8.094,2.17C328.012,102.511,324.76,107.755,324.76,113.764z"/>
<g>
	<path fill="#B2945E" d="M227.408,97.332c0,0.027,0.001,0.057,0.001,0.086c0.067,0,0.13,0.005,0.195,0.005h16.026h16.211V81.151
		V64.976C241.928,64.976,227.408,79.461,227.408,97.332"/>
	<path fill="#3D5C4F" d="M243.625,64.951c8.953,0,16.216-7.264,16.216-16.223c0-8.961-7.263-16.225-16.216-16.225
		c-8.959,0-16.217,7.264-16.217,16.225C227.408,57.688,234.667,64.951,243.625,64.951"/>
	<path fill="#5C2134" d="M211.14,93.081c4.735,2.743,10.231,4.323,16.096,4.342h0.118V64.976v-0.007
		c0-12.012-6.52-22.496-16.214-28.1c-4.756-2.756-10.28-4.336-16.172-4.343h-0.045v32.442h0.008v0.007
		C194.931,76.986,201.451,87.47,211.14,93.081"/>
</g>
<g>
	<path fill="#B2945E" d="M422.125,64.971c-0.115,0-0.227-0.005-0.342-0.007c-5.809,0.034-11.256,1.607-15.955,4.339
		c-9.664,5.604-16.164,16.093-16.164,28.11v0.007v32.463h0.117c5.848-0.02,11.33-1.6,16.047-4.344
		c9.66-5.613,16.162-16.104,16.162-28.119v-0.007h0.006l0.129-32.298c0-0.021-0.002-0.043-0.002-0.066
		C422.123,65.023,422.125,64.997,422.125,64.971"/>
	<path fill="#3D5C4F" d="M438.766,119.617c4.48,0,8.117-3.636,8.117-8.12s-3.637-8.118-8.117-8.118
		c-4.486,0-8.121,3.634-8.121,8.118S434.279,119.617,438.766,119.617"/>
	<path fill="#5C2134" d="M422.143,64.969L422.143,64.969c-0.004,0.024-0.004,0.05-0.004,0.076c0,0.023,0.004,0.046,0.004,0.068
		c0.033,17.852,14.551,32.314,32.457,32.314v-16.19V64.969H422.143z"/>
</g>
<path fill="#B2945E" d="M357.254,97.423v-0.005h0.004c0.031,0,0.061,0.005,0.092,0.005c2.922-0.017,5.658-0.804,8.018-2.173
	c4.85-2.803,8.113-8.049,8.113-14.057v-0.004h0.002V64.964h-0.02c-2.951,0.005-5.717,0.792-8.096,2.171
	c-4.816,2.783-8.063,7.971-8.109,13.926c-0.002,0.043-0.004,0.086-0.004,0.129v0.004V97.423L357.254,97.423z"/>
<path fill="#3D5C4F" d="M389.68,32.504h-0.043c-5.898,0.007-11.428,1.584-16.189,4.344c-9.703,5.606-16.229,16.094-16.229,28.107
	v0.009v16.097c0.049-5.955,3.293-11.143,8.109-13.924c2.379-1.381,5.145-2.168,8.094-2.173h0.023v16.226h-0.004v0.004
	c0,6.008-3.264,11.254-8.113,14.057c-2.361,1.369-5.096,2.156-8.02,2.172c0.012,0,0.021,0.001,0.035,0.001
	c5.863-0.021,11.365-1.599,16.104-4.345c9.699-5.611,16.225-16.1,16.225-28.114v-0.009h0.008V32.504z"/>
<g>
	<path fill="#5C2134" d="M341.025,64.964c8.965,0,16.229-7.267,16.229-16.23s-7.264-16.229-16.229-16.229
		c-2.959,0-5.727,0.805-8.115,2.189v5.927h-0.002v0.001c0,3.004-1.627,5.627-4.053,7.028c-1.186,0.687-2.564,1.082-4.029,1.087
		h-0.031C324.797,57.698,332.063,64.964,341.025,64.964"/>
	<path fill="#3D5C4F" d="M324.813,48.733c1.469-0.005,2.842-0.399,4.029-1.085c2.426-1.402,4.055-4.025,4.055-7.03v-0.001l0,0
		v-5.928v-2.186h-0.012c-1.473,0.002-2.854,0.396-4.043,1.084c-2.428,1.4-4.061,4.023-4.061,7.029v0.001v8.112v0.003H324.813z"/>
</g>
<g>
	<path fill="#5C2134" d="M341.008,97.423c8.965,0,16.23-7.267,16.23-16.229s-7.266-16.229-16.23-16.229
		c-2.959,0-5.725,0.804-8.113,2.188v5.927h-0.002v0.002c0,3.004-1.629,5.628-4.055,7.028c-1.188,0.688-2.563,1.082-4.029,1.087
		h-0.029C324.781,90.157,332.047,97.423,341.008,97.423"/>
	<path fill="#3D5C4F" d="M324.795,81.193c1.469-0.006,2.844-0.4,4.029-1.086c2.426-1.402,4.055-4.025,4.055-7.029v-0.002l0,0v-5.928
		v-2.185h-0.01c-1.471,0.001-2.855,0.395-4.045,1.085c-2.428,1.398-4.059,4.023-4.059,7.027v0.002v8.111v0.004H324.795z"/>
</g>
<g>
	<path fill="#3D5C4F" d="M320.418,81.195c2.744-4.738,4.322-10.241,4.342-16.111v-0.115h-32.458h-0.006
		c-12.016,0-22.507,6.526-28.11,16.227c-2.76,4.762-4.339,10.291-4.345,16.188v0.047h32.455v-0.007h0.006
		C304.318,97.423,314.803,90.896,320.418,81.195"/>
	<path fill="#5C2134" d="M277.417,121.486c4.484,0,8.119-3.635,8.119-8.119c0-4.485-3.635-8.119-8.119-8.119
		c-4.486,0-8.117,3.634-8.117,8.119C269.3,117.852,272.931,121.486,277.417,121.486"/>
	<g>
		<path fill="#5C2134" d="M321.488,113.988c-0.461,0.095-0.918,0.209-1.363,0.343c-6.707,1.995-11.596,8.21-11.596,15.568
			c0,0.027,0.004,0.059,0.004,0.089v0.002h16.227v-16.332c-1.035,0-2.043,0.107-3.021,0.293
			C321.654,113.965,321.57,113.972,321.488,113.988"/>
		<path fill="#B2945E" d="M321.488,113.988c0.082-0.017,0.166-0.023,0.25-0.037c0.979-0.186,1.986-0.293,3.021-0.293V97.423
			c-17.928,0-32.458,14.539-32.458,32.475v0.011c0.731,0,1.455,0.033,2.174,0.08h14.057c0-0.03-0.004-0.062-0.004-0.089
			C308.529,122.051,314.092,115.504,321.488,113.988"/>
	</g>
</g>
<g>
	<path fill="#5C2134" d="M65.021,129.883v-24.91v-2.887c0-10.287-6.504-19.262-16.158-24.068c-2.038-1.012-4.221-1.829-6.506-2.445
		v-0.309v-0.975c0-3.477-1.889-6.509-4.696-8.131c-1.049-0.608-2.226-1.018-3.481-1.18h-1.581l0,0c-0.211,0-0.416-0.01-0.625-0.015
		c-1.337,0.142-2.595,0.551-3.707,1.194c-2.809,1.622-4.697,4.654-4.697,8.131c0,0.329-0.023,0.654-0.056,0.975h-0.023v0.188
		c-2.449,0.629-4.783,1.486-6.951,2.566c-9.66,4.807-16.163,13.781-16.163,24.068c0,0.977-0.067,1.938-0.183,2.887H0.101v0.687
		v24.218v0.006h16.268H65.021z M29.985,70.059c0.87-0.504,1.885-0.796,2.964-0.796s2.093,0.292,2.966,0.796
		c1.663,0.965,2.801,2.715,2.935,4.743c-1.908-0.317-3.876-0.491-5.886-0.505c-0.09,0-0.175-0.008-0.264-0.008h-0.001
		c-1.929,0-3.812,0.159-5.646,0.439C27.207,72.732,28.34,71.012,29.985,70.059 M13.242,123.877v-15.353v-0.437h0.057
		c0.069-0.6,0.112-1.211,0.112-1.829c0-6.521,3.963-12.211,9.85-15.258c2.9-1.5,6.263-2.362,9.853-2.362
		c3.588,0,6.953,0.862,9.851,2.362c5.886,3.047,9.85,8.736,9.85,15.258v1.829v15.791H13.242V123.877z"/>
	<path fill="#3D5C4F" d="M38.266,102.399c-1.53-0.791-3.301-1.245-5.192-1.245s-3.664,0.454-5.192,1.245
		c-3.104,1.604-5.192,4.604-5.192,8.042c0,0.326-0.022,0.646-0.059,0.965h-0.029v0.229v8.091v0.003h20.857v-8.322v-0.965
		C43.458,107.004,41.369,104.004,38.266,102.399"/>
	<path fill="#B2945E" d="M27.052,74.729c1.836-0.279,3.718-0.439,5.647-0.439h0.002c0.088,0,0.174,0.006,0.263,0.008h0.001
		c2.011,0.014,3.978,0.188,5.886,0.504c-0.133-2.027-1.272-3.777-2.934-4.742c-0.873-0.504-1.886-0.796-2.965-0.796
		c-1.081,0-2.094,0.292-2.966,0.796C28.34,71.012,27.208,72.732,27.052,74.729"/>
	<path fill="#B2945E" d="M23.261,91.001c-5.885,3.047-9.851,8.736-9.851,15.258c0,0.618-0.04,1.228-0.111,1.831h-0.058v0.436v15.351
		v0.003h39.572V108.09v-1.831c0-6.521-3.963-12.211-9.849-15.258c-2.898-1.499-6.264-2.362-9.852-2.362
		C29.523,88.639,26.161,89.502,23.261,91.001 M43.458,110.44v0.968v8.318H22.601v-0.001v-8.091v-0.227h0.03
		c0.037-0.319,0.059-0.642,0.059-0.968c0-3.438,2.088-6.436,5.192-8.041c1.529-0.79,3.301-1.244,5.192-1.244
		s3.662,0.454,5.192,1.244C41.37,104.005,43.458,107.003,43.458,110.44"/>
</g>
<g>
	<g>
		<path fill="#B2945E" d="M616.867,64.903h32.439c0-5.896-1.584-11.438-4.338-16.198c-5.604-9.689-16.084-16.205-28.102-16.205
			c-0.627,0-1.248-0.02-1.871-0.057h-30.547V32.5c0,5.904,1.572,11.434,4.326,16.205C594.387,58.392,604.867,64.903,616.867,64.903z
			"/>
		<path fill="#3D5C4F" d="M584.51,64.903h32.429v32.46c-12.007,0-22.487-6.559-28.087-16.316
			C586.108,76.289,584.533,70.783,584.51,64.903z"/>
		<path fill="#5C2134" d="M600.725,81.133h16.214v16.23c-5.997,0-11.239-3.283-14.044-8.164
			C601.534,86.826,600.742,84.074,600.725,81.133z"/>
	</g>
	<path fill="#5C2134" d="M470.839,113.348v16.229c2.944,0,5.713-0.789,8.092-2.173c4.84-2.803,8.094-8.045,8.094-14.057
		c0-0.316,0.014-0.625,0.032-0.936V97.119h-0.032c-2.948,0-5.711,0.787-8.094,2.171
		C474.096,102.098,470.839,107.341,470.839,113.348z"/>
	<path fill="#B2945E" d="M487.068,97.375v32.461c5.902,0,11.438-1.582,16.197-4.334c9.691-5.621,16.212-16.118,16.212-28.127
		c0-0.631,0.015-1.259,0.051-1.864V64.918h-0.051c-5.905,0-11.44,1.571-16.212,4.337C493.586,74.87,487.068,85.361,487.068,97.375z"
		/>
	<path fill="#5C2134" d="M466.522,112.689c0,2.24-1.815,4.053-4.048,4.053c-2.237,0-4.05-1.813-4.05-4.053
		c0-2.234,1.813-4.048,4.05-4.048C464.707,108.642,466.522,110.455,466.522,112.689z"/>
	<path fill="#5C2134" d="M551.991,64.918h-32.463c0-5.896,1.577-11.438,4.343-16.205c5.604-9.688,16.095-16.206,28.12-16.206
		c0.632,0,1.249-0.02,1.871-0.048h30.587v0.048c0,5.91-1.58,11.438-4.344,16.206C574.494,58.403,564.002,64.918,551.991,64.918z"/>
	<path fill="#3D5C4F" d="M535.703,48.688h16.231c0,2.951-0.788,5.72-2.171,8.097c-2.807,4.85-8.052,8.108-14.061,8.108
		c-0.32,0-0.631,0.011-0.943,0.024h-15.284v-0.023c0-2.959,0.786-5.721,2.165-8.109C524.453,51.949,529.693,48.688,535.703,48.688z"
		/>
	<g>
		<path fill="#B2945E" d="M551.984,129.82c17.924,0,32.459-14.533,32.459-32.457h-64.92
			C519.523,115.287,534.057,129.82,551.984,129.82"/>
		<path fill="#3D5C4F" d="M552.051,82.461c0.037-0.439,0.068-0.883,0.068-1.333s-0.031-0.893-0.068-1.332
			c-0.678-8.339-7.646-14.896-16.162-14.896c-8.965,0-16.23,7.263-16.23,16.228c0,8.964,7.266,16.229,16.23,16.229
			C544.404,97.357,551.373,90.799,552.051,82.461"/>
		<path fill="#5C2134" d="M568.213,64.9c-8.514,0-15.483,6.557-16.162,14.896c0.037,0.44,0.068,0.884,0.068,1.332
			c0,0.45-0.031,0.892-0.068,1.333c0.679,8.338,7.648,14.896,16.162,14.896c8.963,0,16.23-7.267,16.23-16.229
			S577.176,64.9,568.213,64.9"/>
	</g>
	<g>
		<path fill="#3D5C4F" d="M503.293,93.084c4.738,2.742,10.238,4.322,16.108,4.343h0.118V64.969v-0.008
			c0-12.016-6.525-22.503-16.227-28.109c-4.762-2.757-10.289-4.336-16.186-4.344h-0.047v32.453h0.008v0.008
			C487.068,76.981,493.594,87.47,503.293,93.084"/>
		<g>
			<path fill="#B2945E" d="M470.826,64.963h16.234c0,0.029,0.002,0.061,0.002,0.091c0,0.156-0.011,0.312-0.013,0.466
				c-0.009,0.48-0.02,0.961-0.048,1.436c-0.013,0.221-0.034,0.441-0.051,0.658c-0.04,0.499-0.09,0.993-0.15,1.486
				c-0.021,0.157-0.038,0.315-0.061,0.473c-0.189,1.36-0.467,2.695-0.821,3.998c-0.017,0.062-0.036,0.119-0.052,0.18
				c-0.172,0.615-0.361,1.224-0.568,1.82c-0.02,0.057-0.037,0.115-0.057,0.172c-0.449,1.279-0.977,2.521-1.575,3.724
				c-0.05,0.097-0.099,0.19-0.147,0.286c-0.249,0.485-0.51,0.965-0.78,1.434c-0.071,0.123-0.142,0.248-0.214,0.369
				c-0.324,0.545-0.66,1.083-1.014,1.606c-0.05,0.072-0.104,0.144-0.154,0.217c-0.293,0.425-0.596,0.841-0.908,1.25
				c-0.166,0.217-0.335,0.428-0.506,0.64c-0.201,0.254-0.41,0.504-0.621,0.75c-0.205,0.241-0.41,0.485-0.625,0.721
				c-0.155,0.172-0.317,0.338-0.477,0.506c-0.513,0.541-1.039,1.067-1.586,1.574c-0.088,0.078-0.172,0.16-0.26,0.239
				c-0.33,0.299-0.669,0.59-1.012,0.874c-0.082,0.07-0.166,0.137-0.248,0.206c-1.563,1.271-3.244,2.402-5.027,3.37
				c-0.012,0.007-0.021,0.012-0.031,0.017c-1.78,0.964-3.666,1.763-5.627,2.383c-0.122,0.038-0.242,0.076-0.363,0.113
				c-0.418,0.126-0.841,0.247-1.265,0.358c-0.181,0.047-0.363,0.086-0.545,0.129c-0.543,0.133-1.093,0.248-1.649,0.352
				c-0.422,0.078-0.843,0.156-1.271,0.217c-0.201,0.029-0.404,0.052-0.606,0.076c-0.523,0.063-1.048,0.121-1.579,0.162
				c-0.098,0.006-0.196,0.014-0.295,0.021c-0.629,0.043-1.265,0.07-1.904,0.077c-0.113,0.001-0.226,0.009-0.34,0.009l0,0V97.42
				v-0.004c0-0.003,0-0.006,0-0.01c0-0.023,0.001-0.049,0.001-0.074c0-0.023-0.001-0.045-0.001-0.068
				c0-0.141-0.009-0.281-0.012-0.421V81.236V64.963h0.147H470.826z"/>
			<path fill="#5C2134" d="M487.053,64.959h-16.305H454.6l0,0c0-12.014,6.527-22.496,16.231-28.109
				c4.737-2.746,10.242-4.323,16.114-4.342h0.117v32.451v0.006c0,0.186-0.016,0.367-0.018,0.551c0.002-0.154,0.01-0.309,0.01-0.465
				C487.055,65.018,487.053,64.988,487.053,64.959"/>
		</g>
	</g>
	<g>
		<path fill="#5C2134" d="M584.449,97.379v16.346c2.794,0,5.424-0.71,7.719-1.96c5.049-2.753,8.478-8.12,8.478-14.292V97.47
			c0-0.028-0.007-0.062-0.007-0.091h-3.313H584.449z"/>
		<g>
			<path fill="#5C2134" d="M600.646,97.473L600.646,97.473c0,6.172-3.429,11.537-8.478,14.291c-2.295,1.252-4.925,1.961-7.719,1.961
				v16.255c17.889,0,32.389-14.554,32.389-32.507c0-0.029-0.002-0.063-0.002-0.094H600.64
				C600.64,97.408,600.646,97.439,600.646,97.473L600.646,97.473z"/>
		</g>
	</g>
</g>
</svg>
